<svg width="109" height="56" viewBox="0 0 109 56" fill="none" xmlns="http://www.w3.org/2000/svg">
<path d="M2.35547 24.7695C4.77734 26.332 7.23828 27.3607 9.73828 27.8555C10.5846 28.0247 11.444 28.1094 12.3164 28.1094C13.1888 28.1094 14.0872 28.0312 15.0117 27.875C15.9492 27.7057 16.776 27.4323 17.4922 27.0547C19.1068 26.1953 19.9141 24.8737 19.9141 23.0898C19.9141 21.2539 18.5599 19.9714 15.8516 19.2422C15.0573 19.0339 14.2109 18.8451 13.3125 18.6758L10.5195 18.1875C6.96484 17.5755 4.48438 16.6771 3.07812 15.4922C1.77604 14.4115 1.125 12.9531 1.125 11.1172C1.125 8.61719 2.32292 6.59245 4.71875 5.04297C6.85417 3.64974 9.3737 2.95312 12.2773 2.95312C15.0638 2.95312 17.5703 3.40885 19.7969 4.32031C20.5911 4.63281 21.418 5.02344 22.2773 5.49219L20.9492 8.67578C19.0612 7.54297 16.8346 6.80729 14.2695 6.46875C13.4622 6.35156 12.681 6.29297 11.9258 6.29297C10.194 6.29297 8.66406 6.625 7.33594 7.28906C5.78646 8.07031 5.01172 9.15104 5.01172 10.5312C5.01172 11.9896 5.99479 13.0573 7.96094 13.7344C8.84635 14.0469 9.84896 14.3008 10.9688 14.4961L14.4453 15.1016C17.375 15.6484 19.4062 16.2669 20.5391 16.957C21.6719 17.6471 22.5052 18.4219 23.0391 19.2812C23.5859 20.1276 23.8594 21.2604 23.8594 22.6797C23.8594 24.0859 23.5273 25.349 22.8633 26.4688C22.1992 27.5885 21.3138 28.513 20.207 29.2422C18.0456 30.6875 15.2917 31.4102 11.9453 31.4102C8.82031 31.4102 5.88411 30.7331 3.13672 29.3789C2.23828 28.9362 1.40495 28.4284 0.636719 27.8555L2.35547 24.7695ZM34.3867 3.44141C34.3867 4.17057 34.1654 4.75651 33.7227 5.19922C33.2799 5.64193 32.694 5.86328 31.9648 5.86328C31.2357 5.86328 30.6497 5.64193 30.207 5.19922C29.7643 4.75651 29.543 4.17057 29.543 3.44141C29.543 2.71224 29.7643 2.13281 30.207 1.70312C30.6497 1.26042 31.2357 1.03906 31.9648 1.03906C32.694 1.03906 33.2799 1.26042 33.7227 1.70312C34.1654 2.13281 34.3867 2.71224 34.3867 3.44141ZM30.1094 11.4688H33.8203V31H30.1094V11.4688ZM41.0078 0.511719H44.7188V24.3203C44.7188 25.6484 44.8099 26.5339 44.9922 26.9766C45.3568 27.8229 45.9818 28.3633 46.8672 28.5977L46.3203 31C44.3021 31.2604 42.8633 30.7266 42.0039 29.3984C41.3398 28.3568 41.0078 26.7552 41.0078 24.5938V0.511719ZM65.7734 13.1875C66.4635 13.8776 67.0039 14.75 67.3945 15.8047C67.7982 16.8464 68 17.9466 68 19.1055C68 20.2643 67.8698 21.625 67.6094 23.1875H54.0156C54.3021 24.763 54.9401 26.0065 55.9297 26.918C56.9193 27.8164 58.319 28.2656 60.1289 28.2656C62.5508 28.2656 64.7708 27.8229 66.7891 26.9375L67.4141 29.7305C66.0729 30.5117 64.1589 31.026 61.6719 31.2734C60.9818 31.3516 60.0833 31.3906 58.9766 31.3906C57.8698 31.3906 56.7109 31.1693 55.5 30.7266C54.2891 30.2839 53.2865 29.6328 52.4922 28.7734C50.9167 27.0677 50.1289 24.5677 50.1289 21.2734C50.1289 18.3828 51.0729 15.9609 52.9609 14.0078C54.875 12.0547 57.2643 11.0781 60.1289 11.0781C62.4857 11.0781 64.3672 11.7812 65.7734 13.1875ZM64.4648 20.3164L64.543 19.2617C64.543 16.8789 63.651 15.2969 61.8672 14.5156C61.2682 14.2552 60.5521 14.125 59.7188 14.125C58.8854 14.125 58.1172 14.2878 57.4141 14.6133C56.724 14.9388 56.125 15.3815 55.6172 15.9414C54.5755 17.0872 53.9896 18.5456 53.8594 20.3164H64.4648ZM76.8672 13.4023C78.9115 11.8529 81.2552 11.0781 83.8984 11.0781C89.8359 11.0781 92.8047 14.3398 92.8047 20.8633V31H89.0938V21.0977C89.0938 18.8451 88.7031 17.1719 87.9219 16.0781C87.0495 14.8281 85.6237 14.2031 83.6445 14.2031C81.5221 14.2031 79.7448 14.724 78.3125 15.7656C77.8438 16.0911 77.4661 16.4688 77.1797 16.8984V31H73.4688V11.4688H76.3008L76.8672 13.4023ZM99.2305 14.4766H97.1406V12.0547L101.945 8.44141H102.941V11.4688H108.527V14.4766H102.941V22.3672C102.941 24.5807 103.221 26.0911 103.781 26.8984C104.341 27.6927 105.435 28.181 107.062 28.3633L106.496 31C102.59 31.4948 100.279 29.9518 99.5625 26.3711C99.3411 25.3034 99.2305 24.151 99.2305 22.9141V14.4766ZM1.59375 27.3438H22.2383V30.625H5.20703V38.0859H20.3828V41.3672H5.20703V51.7188H22.6289V55H1.59375V27.3438ZM42.7461 50.8203L43.4297 53.5742C41.8021 54.7852 39.4062 55.3906 36.2422 55.3906C33.2214 55.3906 30.8516 54.4661 29.1328 52.6172C27.4531 50.8203 26.6133 48.3724 26.6133 45.2734C26.6133 42.3828 27.5573 39.9609 29.4453 38.0078C31.3594 36.0547 33.7487 35.0781 36.6133 35.0781C39.1914 35.0781 41.2878 35.6706 42.9023 36.8555L41.6133 39.7656C40.1419 38.6719 38.3581 38.125 36.2617 38.125C34.4648 38.125 33.013 38.8151 31.9062 40.1953C30.8516 41.4974 30.3242 43.112 30.3242 45.0391C30.3242 47.1094 30.8776 48.8151 31.9844 50.1562C33.1432 51.5625 34.7383 52.2656 36.7695 52.2656C38.8008 52.2656 40.793 51.7839 42.7461 50.8203ZM51.3984 37.168C53.3255 35.7747 55.5651 35.0781 58.1172 35.0781C64.0547 35.0781 67.0234 38.3398 67.0234 44.8633V55H63.332L63.3125 45.0977C63.3125 42.8451 62.9219 41.1719 62.1406 40.0781C61.2682 38.8281 59.8424 38.2031 57.8633 38.2031C55.7409 38.2031 53.9635 38.724 52.5312 39.7656C52.0625 40.0911 51.6849 40.4688 51.3984 40.8984V55H47.6875V24.4922L51.3984 24.5117V37.168ZM72.082 45.4102C72.082 43.9258 72.375 42.5521 72.9609 41.2891C73.5469 40.026 74.3411 38.9323 75.3438 38.0078C77.4661 36.0547 80.0182 35.0781 83 35.0781C86.0078 35.0781 88.5143 36.0091 90.5195 37.8711C92.5508 39.7591 93.5664 42.1875 93.5664 45.1562C93.5664 48.0599 92.4792 50.5013 90.3047 52.4805C88.1953 54.4206 85.6432 55.3906 82.6484 55.3906C79.6016 55.3906 77.0885 54.4661 75.1094 52.6172C73.0911 50.7422 72.082 48.3398 72.082 45.4102ZM75.793 45.1953C75.793 46.2109 75.9753 47.1549 76.3398 48.0273C76.7044 48.8867 77.2057 49.6354 77.8438 50.2734C79.1979 51.6016 80.9167 52.2656 83 52.2656C84.9401 52.2656 86.5677 51.6016 87.8828 50.2734C89.1979 48.9714 89.8555 47.3372 89.8555 45.3711C89.8555 43.3138 89.1719 41.6016 87.8047 40.2344C86.4505 38.8802 84.7318 38.2031 82.6484 38.2031C80.7083 38.2031 79.0807 38.8737 77.7656 40.2148C76.4505 41.543 75.793 43.2031 75.793 45.1953Z" fill="#06D6A0"/>
</svg>
