<svg width="109" height="56" viewBox="0 0 109 56" fill="none" xmlns="http://www.w3.org/2000/svg">
<path d="M2.35614 24.7695C4.77802 26.332 7.23895 27.3607 9.73895 27.8555C10.5853 28.0247 11.4447 28.1094 12.3171 28.1094C13.1895 28.1094 14.0879 28.0312 15.0124 27.875C15.9499 27.7057 16.7767 27.4323 17.4929 27.0547C19.1074 26.1953 19.9147 24.8737 19.9147 23.0898C19.9147 21.2539 18.5606 19.9714 15.8522 19.2422C15.058 19.0339 14.2116 18.8451 13.3132 18.6758L10.5202 18.1875C6.96552 17.5755 4.48505 16.6771 3.0788 15.4922C1.77671 14.4115 1.12567 12.9531 1.12567 11.1172C1.12567 8.61719 2.32359 6.59245 4.71942 5.04297C6.85484 3.64974 9.37437 2.95312 12.278 2.95312C15.0645 2.95312 17.571 3.40885 19.7975 4.32031C20.5918 4.63281 21.4186 5.02344 22.278 5.49219L20.9499 8.67578C19.0619 7.54297 16.8353 6.80729 14.2702 6.46875C13.4629 6.35156 12.6817 6.29297 11.9265 6.29297C10.1947 6.29297 8.66473 6.625 7.33661 7.28906C5.78713 8.07031 5.01239 9.15104 5.01239 10.5312C5.01239 11.9896 5.99546 13.0573 7.96161 13.7344C8.84703 14.0469 9.84963 14.3008 10.9694 14.4961L14.446 15.1016C17.3757 15.6484 19.4069 16.2669 20.5397 16.957C21.6725 17.6471 22.5059 18.4219 23.0397 19.2812C23.5866 20.1276 23.86 21.2604 23.86 22.6797C23.86 24.0859 23.528 25.349 22.864 26.4688C22.1999 27.5885 21.3145 28.513 20.2077 29.2422C18.0462 30.6875 15.2923 31.4102 11.946 31.4102C8.82098 31.4102 5.88479 30.7331 3.13739 29.3789C2.23895 28.9362 1.40562 28.4284 0.63739 27.8555L2.35614 24.7695ZM34.3874 3.44141C34.3874 4.17057 34.166 4.75651 33.7233 5.19922C33.2806 5.64193 32.6947 5.86328 31.9655 5.86328C31.2363 5.86328 30.6504 5.64193 30.2077 5.19922C29.765 4.75651 29.5436 4.17057 29.5436 3.44141C29.5436 2.71224 29.765 2.13281 30.2077 1.70312C30.6504 1.26042 31.2363 1.03906 31.9655 1.03906C32.6947 1.03906 33.2806 1.26042 33.7233 1.70312C34.166 2.13281 34.3874 2.71224 34.3874 3.44141ZM30.11 11.4688H33.821V31H30.11V11.4688ZM41.0085 0.511719H44.7194V24.3203C44.7194 25.6484 44.8106 26.5339 44.9929 26.9766C45.3574 27.8229 45.9824 28.3633 46.8679 28.5977L46.321 31C44.3028 31.2604 42.864 30.7266 42.0046 29.3984C41.3405 28.3568 41.0085 26.7552 41.0085 24.5938V0.511719ZM65.7741 13.1875C66.4642 13.8776 67.0046 14.75 67.3952 15.8047C67.7988 16.8464 68.0007 17.9466 68.0007 19.1055C68.0007 20.2643 67.8705 21.625 67.61 23.1875H54.0163C54.3028 24.763 54.9408 26.0065 55.9304 26.918C56.9199 27.8164 58.3197 28.2656 60.1296 28.2656C62.5515 28.2656 64.7715 27.8229 66.7897 26.9375L67.4147 29.7305C66.0736 30.5117 64.1595 31.026 61.6725 31.2734C60.9824 31.3516 60.084 31.3906 58.9772 31.3906C57.8705 31.3906 56.7116 31.1693 55.5007 30.7266C54.2897 30.2839 53.2871 29.6328 52.4929 28.7734C50.9173 27.0677 50.1296 24.5677 50.1296 21.2734C50.1296 18.3828 51.0736 15.9609 52.9616 14.0078C54.8757 12.0547 57.265 11.0781 60.1296 11.0781C62.4863 11.0781 64.3679 11.7812 65.7741 13.1875ZM64.4655 20.3164L64.5436 19.2617C64.5436 16.8789 63.6517 15.2969 61.8679 14.5156C61.2689 14.2552 60.5528 14.125 59.7194 14.125C58.8861 14.125 58.1179 14.2878 57.4147 14.6133C56.7246 14.9388 56.1257 15.3815 55.6179 15.9414C54.5762 17.0872 53.9903 18.5456 53.86 20.3164H64.4655ZM76.8679 13.4023C78.9121 11.8529 81.2559 11.0781 83.8991 11.0781C89.8366 11.0781 92.8054 14.3398 92.8054 20.8633V31H89.0944V21.0977C89.0944 18.8451 88.7038 17.1719 87.9225 16.0781C87.0502 14.8281 85.6244 14.2031 83.6452 14.2031C81.5228 14.2031 79.7455 14.724 78.3132 15.7656C77.8444 16.0911 77.4668 16.4688 77.1804 16.8984V31H73.4694V11.4688H76.3015L76.8679 13.4023ZM99.2311 14.4766H97.1413V12.0547L101.946 8.44141H102.942V11.4688H108.528V14.4766H102.942V22.3672C102.942 24.5807 103.222 26.0911 103.782 26.8984C104.342 27.6927 105.436 28.181 107.063 28.3633L106.497 31C102.591 31.4948 100.279 29.9518 99.5632 26.3711C99.3418 25.3034 99.2311 24.151 99.2311 22.9141V14.4766ZM1.59442 27.3438H22.239V30.625H5.2077V38.0859H20.3835V41.3672H5.2077V51.7188H22.6296V55H1.59442V27.3438ZM42.7468 50.8203L43.4304 53.5742C41.8028 54.7852 39.4069 55.3906 36.2429 55.3906C33.222 55.3906 30.8522 54.4661 29.1335 52.6172C27.4538 50.8203 26.614 48.3724 26.614 45.2734C26.614 42.3828 27.558 39.9609 29.446 38.0078C31.36 36.0547 33.7494 35.0781 36.614 35.0781C39.1921 35.0781 41.2884 35.6706 42.903 36.8555L41.614 39.7656C40.1426 38.6719 38.3587 38.125 36.2624 38.125C34.4655 38.125 33.0137 38.8151 31.9069 40.1953C30.8522 41.4974 30.3249 43.112 30.3249 45.0391C30.3249 47.1094 30.8783 48.8151 31.985 50.1562C33.1439 51.5625 34.739 52.2656 36.7702 52.2656C38.8015 52.2656 40.7936 51.7839 42.7468 50.8203ZM51.3991 37.168C53.3262 35.7747 55.5658 35.0781 58.1179 35.0781C64.0554 35.0781 67.0241 38.3398 67.0241 44.8633V55H63.3327L63.3132 45.0977C63.3132 42.8451 62.9225 41.1719 62.1413 40.0781C61.2689 38.8281 59.8431 38.2031 57.864 38.2031C55.7416 38.2031 53.9642 38.724 52.5319 39.7656C52.0632 40.0911 51.6856 40.4688 51.3991 40.8984V55H47.6882V24.4922L51.3991 24.5117V37.168ZM72.0827 45.4102C72.0827 43.9258 72.3757 42.5521 72.9616 41.2891C73.5475 40.026 74.3418 38.9323 75.3444 38.0078C77.4668 36.0547 80.0189 35.0781 83.0007 35.0781C86.0085 35.0781 88.515 36.0091 90.5202 37.8711C92.5515 39.7591 93.5671 42.1875 93.5671 45.1562C93.5671 48.0599 92.4798 50.5013 90.3054 52.4805C88.196 54.4206 85.6439 55.3906 82.6491 55.3906C79.6022 55.3906 77.0892 54.4661 75.11 52.6172C73.0918 50.7422 72.0827 48.3398 72.0827 45.4102ZM75.7936 45.1953C75.7936 46.2109 75.9759 47.1549 76.3405 48.0273C76.7051 48.8867 77.2064 49.6354 77.8444 50.2734C79.1986 51.6016 80.9173 52.2656 83.0007 52.2656C84.9408 52.2656 86.5684 51.6016 87.8835 50.2734C89.1986 48.9714 89.8561 47.3372 89.8561 45.3711C89.8561 43.3138 89.1725 41.6016 87.8054 40.2344C86.4512 38.8802 84.7324 38.2031 82.6491 38.2031C80.709 38.2031 79.0814 38.8737 77.7663 40.2148C76.4512 41.543 75.7936 43.2031 75.7936 45.1953Z" fill="#EF476F"/>
</svg>
